<?xml version="1.0" ?><!DOCTYPE svg  PUBLIC '-//W3C//DTD SVG 1.1//EN'  'http://www.w3.org/Graphics/SVG/1.1/DTD/svg11.dtd'><svg enable-background="new 0 0 100 100" height="100px" id="Layer_1" version="1.1" viewBox="0 0 100 100" width="100px" xml:space="preserve" xmlns="http://www.w3.org/2000/svg" xmlns:xlink="http://www.w3.org/1999/xlink"><g><g><linearGradient gradientTransform="matrix(0.2047 0 0 0.2526 436.1145 -165.7383)" gradientUnits="userSpaceOnUse" id="SVGID_1_" x1="-1887.9888" x2="-1887.9888" y1="980.1172" y2="1009.4661"><stop offset="0.0113" style="stop-color:#DAD4D8"/><stop offset="0.1442" style="stop-color:#DDD7DB"/><stop offset="0.2591" style="stop-color:#E6E2E5"/><stop offset="0.3669" style="stop-color:#F5F4F5"/><stop offset="0.4181" style="stop-color:#FFFFFF"/><stop offset="0.4358" style="stop-color:#FAF9FA"/><stop offset="0.5088" style="stop-color:#EAE8EA"/><stop offset="0.5868" style="stop-color:#E1DDE0"/><stop offset="0.678" style="stop-color:#DEDADD"/><stop offset="0.8644" style="stop-color:#F7F6F8"/><stop offset="1" style="stop-color:#CCD4E1"/></linearGradient><rect fill="url(#SVGID_1_)" height="5.852" width="63" x="18.143" y="82.326"/><linearGradient gradientTransform="matrix(0.2526 0 0 0.2526 539.874 -165.7383)" gradientUnits="userSpaceOnUse" id="SVGID_2_" x1="-1949.144" x2="-1929.2399" y1="963.5088" y2="963.5088"><stop offset="0.0113" style="stop-color:#DAD4D8"/><stop offset="0.1442" style="stop-color:#DDD7DB"/><stop offset="0.2591" style="stop-color:#E6E2E5"/><stop offset="0.3669" style="stop-color:#F5F4F5"/><stop offset="0.4181" style="stop-color:#FFFFFF"/><stop offset="0.4358" style="stop-color:#FAF9FA"/><stop offset="0.5088" style="stop-color:#EAE8EA"/><stop offset="0.5868" style="stop-color:#E1DDE0"/><stop offset="0.678" style="stop-color:#DEDADD"/><stop offset="0.8644" style="stop-color:#F7F6F8"/><stop offset="1" style="stop-color:#CCD4E1"/></linearGradient><rect fill="url(#SVGID_2_)" height="9.365" width="4.641" x="47.321" y="72.961"/><g><radialGradient cx="300.3789" cy="325.1914" gradientTransform="matrix(0.1823 0 0 0.184 -3.42 29.4373)" gradientUnits="userSpaceOnUse" id="SVGID_3_" r="49.8545"><stop offset="0.0056" style="stop-color:#A9D1EF"/><stop offset="0.5393" style="stop-color:#1998D5"/><stop offset="1" style="stop-color:#0073BB"/></radialGradient><path d="M54.079,85.447c0,2.475-1.988,4.477-4.435,4.477c-2.45,0-4.438-2.002-4.438-4.477     c0-2.473,1.987-4.477,4.438-4.477C52.091,80.971,54.079,82.975,54.079,85.447z" fill="url(#SVGID_3_)"/><linearGradient gradientTransform="matrix(0.1811 0 0 0.1811 -2.6371 29.7003)" gradientUnits="userSpaceOnUse" id="SVGID_4_" x1="287.9375" x2="287.7295" y1="300.7832" y2="284.3312"><stop offset="0" style="stop-color:#1998D5"/><stop offset="0.096" style="stop-color:#209BD6"/><stop offset="0.2318" style="stop-color:#32A3DA"/><stop offset="0.3913" style="stop-color:#51B1DF"/><stop offset="0.5689" style="stop-color:#7BC4E7"/><stop offset="0.7614" style="stop-color:#B1DCF1"/><stop offset="0.9635" style="stop-color:#F2F9FD"/><stop offset="1" style="stop-color:#FFFFFF"/></linearGradient><path d="M52.209,83.201c0,1.09-1.479,0.889-2.977,0.889c-1.497,0-2.449,0.201-2.449-0.889     c0-1.086,1.214-1.967,2.712-1.967C50.994,81.234,52.209,82.115,52.209,83.201z" fill="url(#SVGID_4_)"/></g><linearGradient gradientTransform="matrix(0.2526 0 0 0.2526 442.6465 -204.6436)" gradientUnits="userSpaceOnUse" id="SVGID_5_" x1="-1440.4326" x2="-1669.8392" y1="973.4551" y2="998.9447"><stop offset="0.1243" style="stop-color:#0077BE"/><stop offset="0.5393" style="stop-color:#99C9EB"/><stop offset="1" style="stop-color:#0073BB"/></linearGradient><rect fill="url(#SVGID_5_)" height="35.794" width="53.639" x="22.824" y="26.593"/><linearGradient gradientTransform="matrix(1.0253 0 0 1.0253 247.9526 101.3389)" gradientUnits="userSpaceOnUse" id="SVGID_6_" x1="-193.4155" x2="-193.4155" y1="-89.6265" y2="-69.0278"><stop offset="0" style="stop-color:#CFD0D2"/><stop offset="0.3121" style="stop-color:#CCCDCF"/><stop offset="0.5822" style="stop-color:#C1C2C4"/><stop offset="0.836" style="stop-color:#AFB1B3"/><stop offset="0.9944" style="stop-color:#A0A2A4"/></linearGradient><path d="M21.999,9.924c-2.128,0-3.856,1.75-3.856,3.892v10.907c0,2.146,1.728,3.895,3.856,3.895h55.289    c2.122,0,3.854-1.748,3.854-3.895V13.815c0-2.142-1.732-3.892-3.854-3.892H21.999z" fill="url(#SVGID_6_)"/><path d="M77.288,10.822H22.003c-1.632,0-2.97,1.348-2.97,2.993v1.057c0-1.646,1.338-2.994,2.97-2.994h55.285    c1.629,0,2.963,1.348,2.963,2.994v-1.057C80.251,12.17,78.917,10.822,77.288,10.822z" fill="#FFFFFF"/><linearGradient gradientTransform="matrix(-1.0253 0 0 -1.0253 -267.6572 -247.6689)" gradientUnits="userSpaceOnUse" id="SVGID_7_" x1="-309.5981" x2="-309.0834" y1="-272.5347" y2="-231.8722"><stop offset="0" style="stop-color:#B6BEC3"/><stop offset="0.1227" style="stop-color:#B9C1C6"/><stop offset="0.2289" style="stop-color:#C4CACE"/><stop offset="0.329" style="stop-color:#D6DADD"/><stop offset="0.4248" style="stop-color:#EFF0F1"/><stop offset="0.4633" style="stop-color:#FBFBFB"/><stop offset="0.7298" style="stop-color:#C6C7C9"/><stop offset="0.9944" style="stop-color:#8E9093"/></linearGradient><path d="M19.033,17.125v7.598c0,1.646,1.338,2.996,2.97,2.996h55.285c1.629,0,2.963-1.35,2.963-2.996    v-6.669C65.056,22.836,44.946,24.184,19.033,17.125z" fill="url(#SVGID_7_)"/><linearGradient gradientTransform="matrix(-1.0253 0 0 -1.0253 -267.6572 -247.6689)" gradientUnits="userSpaceOnUse" id="SVGID_8_" x1="-309.4692" x2="-309.4692" y1="-262.208" y2="-233.3708"><stop offset="0" style="stop-color:#CCD4D9"/><stop offset="0.061" style="stop-color:#DAE0E3"/><stop offset="0.1666" style="stop-color:#EBEEF0"/><stop offset="0.298" style="stop-color:#F6F8F9"/><stop offset="0.4824" style="stop-color:#FDFDFE"/><stop offset="0.9944" style="stop-color:#FFFFFF"/></linearGradient><path d="M77.288,10.822H22.003c-1.632,0-2.97,1.348-2.97,2.993v3.31    c25.913,7.059,46.022,5.711,61.218,0.929v-4.238C80.251,12.17,78.917,10.822,77.288,10.822z" fill="url(#SVGID_8_)"/><linearGradient gradientTransform="matrix(1.0253 0 0 1.0253 247.9526 122.8701)" gradientUnits="userSpaceOnUse" id="SVGID_9_" x1="-193.4155" x2="-193.4155" y1="-88.9985" y2="-68.399"><stop offset="0" style="stop-color:#CFD0D2"/><stop offset="0.3121" style="stop-color:#CCCDCF"/><stop offset="0.5822" style="stop-color:#C1C2C4"/><stop offset="0.836" style="stop-color:#AFB1B3"/><stop offset="0.9944" style="stop-color:#A0A2A4"/></linearGradient><path d="M21.999,32.096c-2.128,0-3.856,1.748-3.856,3.895v10.907c0,2.148,1.728,3.894,3.856,3.894h55.289    c2.122,0,3.854-1.745,3.854-3.894V35.99c0-2.146-1.732-3.895-3.854-3.895H21.999z" fill="url(#SVGID_9_)"/><path d="M77.288,32.998H22.003c-1.632,0-2.97,1.346-2.97,2.992v1.055c0-1.646,1.338-2.991,2.97-2.991h55.285    c1.629,0,2.963,1.345,2.963,2.991V35.99C80.251,34.344,78.917,32.998,77.288,32.998z" fill="#FFFFFF"/><linearGradient gradientTransform="matrix(-1.0253 0 0 -1.0253 -267.6572 -226.1299)" gradientUnits="userSpaceOnUse" id="SVGID_10_" x1="-309.5986" x2="-309.084" y1="-273.1606" y2="-232.5052"><stop offset="0" style="stop-color:#B6BEC3"/><stop offset="0.1227" style="stop-color:#B9C1C6"/><stop offset="0.2289" style="stop-color:#C4CACE"/><stop offset="0.329" style="stop-color:#D6DADD"/><stop offset="0.4248" style="stop-color:#EFF0F1"/><stop offset="0.4633" style="stop-color:#FBFBFB"/><stop offset="0.7298" style="stop-color:#C6C7C9"/><stop offset="0.9944" style="stop-color:#8E9093"/></linearGradient><path d="M19.033,39.301v7.597c0,1.65,1.338,2.994,2.97,2.994h55.285c1.629,0,2.963-1.344,2.963-2.994    v-6.671C65.056,45.01,44.946,46.36,19.033,39.301z" fill="url(#SVGID_10_)"/><linearGradient gradientTransform="matrix(-1.0253 0 0 -1.0253 -267.6572 -226.1299)" gradientUnits="userSpaceOnUse" id="SVGID_11_" x1="-309.4692" x2="-309.4692" y1="-262.8364" y2="-234.0005"><stop offset="0" style="stop-color:#CCD4D9"/><stop offset="0.061" style="stop-color:#DAE0E3"/><stop offset="0.1666" style="stop-color:#EBEEF0"/><stop offset="0.298" style="stop-color:#F6F8F9"/><stop offset="0.4824" style="stop-color:#FDFDFE"/><stop offset="0.9944" style="stop-color:#FFFFFF"/></linearGradient><path d="M77.288,32.998H22.003c-1.632,0-2.97,1.346-2.97,2.992v3.311    c25.913,7.06,46.022,5.709,61.218,0.926V35.99C80.251,34.344,78.917,32.998,77.288,32.998z" fill="url(#SVGID_11_)"/><linearGradient gradientTransform="matrix(1.0253 0 0 1.0253 247.9526 144.3994)" gradientUnits="userSpaceOnUse" id="SVGID_12_" x1="-193.4155" x2="-193.4155" y1="-88.3696" y2="-67.7742"><stop offset="0" style="stop-color:#CFD0D2"/><stop offset="0.3121" style="stop-color:#CCCDCF"/><stop offset="0.5822" style="stop-color:#C1C2C4"/><stop offset="0.836" style="stop-color:#AFB1B3"/><stop offset="0.9944" style="stop-color:#A0A2A4"/></linearGradient><path d="M21.999,54.275c-2.128,0-3.856,1.744-3.856,3.887v10.91c0,2.148,1.728,3.889,3.856,3.889h55.289    c2.122,0,3.854-1.74,3.854-3.889v-10.91c0-2.143-1.732-3.887-3.854-3.887H21.999z" fill="url(#SVGID_12_)"/><path d="M77.288,56.23H22.003c-1.632,0-2.97,1.346-2.97,2.99v1.055c0-1.643,1.338-2.99,2.97-2.99h55.285    c1.629,0,2.963,1.348,2.963,2.99v-1.055C80.251,57.576,78.917,56.23,77.288,56.23z" fill="#FFFFFF"/><linearGradient gradientTransform="matrix(-1.0253 0 0 -1.0253 -267.6572 -204.6025)" gradientUnits="userSpaceOnUse" id="SVGID_13_" x1="-309.5986" x2="-309.0841" y1="-273.7891" y2="-233.1409"><stop offset="0" style="stop-color:#B6BEC3"/><stop offset="0.1227" style="stop-color:#B9C1C6"/><stop offset="0.2289" style="stop-color:#C4CACE"/><stop offset="0.329" style="stop-color:#D6DADD"/><stop offset="0.4248" style="stop-color:#EFF0F1"/><stop offset="0.4633" style="stop-color:#FBFBFB"/><stop offset="0.7298" style="stop-color:#C6C7C9"/><stop offset="0.9944" style="stop-color:#8E9093"/></linearGradient><path d="M19.033,61.477v7.596c0,1.648,1.338,2.994,2.97,2.994h55.285c1.629,0,2.963-1.346,2.963-2.994    v-6.668C65.056,67.18,44.946,68.531,19.033,61.477z" fill="url(#SVGID_13_)"/><linearGradient gradientTransform="matrix(-1.0253 0 0 -1.0253 -267.6572 -204.6025)" gradientUnits="userSpaceOnUse" id="SVGID_14_" x1="-309.4692" x2="-309.4692" y1="-263.4639" y2="-234.6341"><stop offset="0" style="stop-color:#CCD4D9"/><stop offset="0.061" style="stop-color:#DAE0E3"/><stop offset="0.1666" style="stop-color:#EBEEF0"/><stop offset="0.298" style="stop-color:#F6F8F9"/><stop offset="0.4824" style="stop-color:#FDFDFE"/><stop offset="0.9944" style="stop-color:#FFFFFF"/></linearGradient><path d="M77.288,55.176H22.003c-1.632,0-2.97,1.342-2.97,2.986v3.314    c25.913,7.055,46.022,5.703,61.218,0.928v-4.242C80.251,56.518,78.917,55.176,77.288,55.176z" fill="url(#SVGID_14_)"/></g></g></svg>